<mxfile host="app.diagrams.net" modified="2022-10-24T04:06:27.920Z" agent="5.0 (Windows NT 10.0; Win64; x64) AppleWebKit/537.36 (KHTML, like Gecko) Chrome/105.0.0.0 Safari/537.36 Edg/105.0.1343.33" version="14.6.12" etag="pTD1gGAMGjc33WmBM0t4" type="github">
  <diagram id="ErwekUG4uUHXQSbdCcVv" name="Page-1">
    <mxGraphModel dx="1614" dy="1177" grid="1" gridSize="10" guides="1" tooltips="1" connect="1" arrows="1" fold="1" page="0" pageScale="1" pageWidth="827" pageHeight="1169" background="#F4F1DE" math="0" shadow="0">
      <root>
        <mxCell id="0" />
        <mxCell id="1" parent="0" />
        <mxCell id="OA1YNYNkTkxr8tWori3P-1" value="Testing" style="whiteSpace=wrap;html=1;aspect=fixed;fillColor=#F2CC8F;strokeColor=#E07A5F;fontColor=#393C56;fontStyle=1;fontSize=27;" vertex="1" parent="1">
          <mxGeometry x="100" y="520" width="320" height="320" as="geometry" />
        </mxCell>
      </root>
    </mxGraphModel>
  </diagram>
</mxfile>
